<svg xmlns="http://www.w3.org/2000/svg" version="1.1" xmlns:xlink="http://www.w3.org/1999/xlink" xmlns:svgjs="http://svgjs.dev/svgjs" width="1920" height="1080" preserveAspectRatio="none" viewBox="0 0 1920 1080"><g mask="url(&quot;#SvgjsMask1758&quot;)" fill="none"><rect width="1920" height="1080" x="0" y="0" fill="url(&quot;#SvgjsLinearGradient1759&quot;)"></rect><path d="M1920 0L1155.44 0L1920 48.42z" fill="rgba(255, 255, 255, .1)"></path><path d="M1155.44 0L1920 48.42L1920 111.4L802.1300000000001 0z" fill="rgba(255, 255, 255, .075)"></path><path d="M802.1300000000001 0L1920 111.4L1920 716.59L312.3200000000001 0z" fill="rgba(255, 255, 255, .05)"></path><path d="M312.32000000000016 0L1920 716.59L1920 833.61L262.26000000000016 0z" fill="rgba(255, 255, 255, .025)"></path><path d="M0 1080L770.18 1080L0 951.52z" fill="rgba(0, 0, 0, .1)"></path><path d="M0 951.52L770.18 1080L1070.4099999999999 1080L0 836.52z" fill="rgba(0, 0, 0, .075)"></path><path d="M0 836.52L1070.4099999999999 1080L1575.84 1080L0 408.74z" fill="rgba(0, 0, 0, .05)"></path><path d="M0 408.74L1575.84 1080L1587.3 1080L0 207.59z" fill="rgba(0, 0, 0, .025)"></path></g><defs><mask id="SvgjsMask1758"><rect width="1920" height="1080" fill="#ffffff"></rect></mask><linearGradient x1="10.94%" y1="-19.44%" x2="89.06%" y2="119.44%" gradientUnits="userSpaceOnUse" id="SvgjsLinearGradient1759"><stop stop-color="rgba(14, 42, 71, 0)" offset="0"></stop><stop stop-color="rgba(22, 163, 74, 0)" offset="1"></stop></linearGradient></defs></svg>